# xmcd
#
# Track frame offsets: 
#        150
#        12246
#        26540
#        39527
#        53074
#        67023
#        81062
#        94243
#        107289
#        119982
#        134084
#        146064
#        159429
#        173335
#        185997
#        198355
#        211048
#        224266
#        238513
#        251845
#        266728
#        281655
#        294295
#        309028
#        323992
#
# Disc length: 4488 seconds
#
# Revision: 3
# Processed by: cddbd v1.5.2PL0 Copyright (c) Steve Scherf et al.
# Submitted via: ExactAudioCopyFreeDBPlugin 1.0
#
DISCID=72118619
DTITLE=The Carter Family - In The Shadow Of Clinch Mountain - Vol. 03
DYEAR=2000
DGENRE=Bluegrass
TTITLE0=Lonesome Valley
TTITLE1=On the Rock Where Moses Stood
TTITLE2=Room In Heaven For Me
TTITLE3=Lonesome Pine Special
TTITLE4=No More the Moon Shines On Lorena
TTITLE5=On My Way To Canaan's Land
TTITLE6=Where Shall I Be
TTITLE7=Sow 'Em On the Mountain
TTITLE8=Darling Nellie Across the Sea
TTITLE9=The Birds Were Singing Of You
TTITLE10=Weary Prodigal Son
TTITLE11=My Old Cottage Home
TTITLE12=When I'm Gone
TTITLE13=Sunshine In the Mountain
TTITLE14=Let the Church Roll On
TTITLE15=Lonesome For You
TTITLE16=Can't Feel At Home
TTITLE17=Why There's A Tear In My Eye
TTITLE18=The Wonderful City
TTITLE19=Jimmie Rodgers Visits the Carter Family
TTITLE20=The Carter Family and Jimmie Rodgers In Texas
TTITLE21='Mid The Green Fields Of Virginia
TTITLE22=Happiest Days Of All
TTITLE23=Picture On the Wall
TTITLE24=Amber Tresses
EXTD=
EXTT0=
EXTT1=
EXTT2=
EXTT3=
EXTT4=
EXTT5=
EXTT6=
EXTT7=
EXTT8=
EXTT9=
EXTT10=
EXTT11=
EXTT12=
EXTT13=
EXTT14=
EXTT15=
EXTT16=
EXTT17=
EXTT18=
EXTT19=
EXTT20=
EXTT21=
EXTT22=
EXTT23=
EXTT24=
PLAYORDER=
